<?xml version="1.0" standalone="no"?><!DOCTYPE svg PUBLIC "-//W3C//DTD SVG 1.1//EN" "http://www.w3.org/Graphics/SVG/1.1/DTD/svg11.dtd"><svg t="1603764267038" class="icon" viewBox="0 0 1024 1024" version="1.1" xmlns="http://www.w3.org/2000/svg" p-id="3290" xmlns:xlink="http://www.w3.org/1999/xlink" width="200" height="200"><defs><style type="text/css"></style></defs><path d="M0 0h1024v1024H0z" fill="#D8D8D8" fill-opacity="0" p-id="3291"></path><path d="M819.2 153.6V73.142857c0-29.257143 21.942857-58.514286 58.514286-58.514286s58.514286 21.942857 58.514285 58.514286v219.428572c0 29.257143-21.942857 58.514286-58.514285 58.514285H658.285714c-29.257143 0-58.514286-29.257143-58.514285-58.514285s29.257143-58.514286 58.514285-58.514286h95.085715c-51.2-43.885714-109.714286-73.142857-175.542858-87.771429-204.8-29.257143-387.657143 102.4-424.228571 299.885715s95.085714 387.657143 299.885714 424.228571 387.657143-95.085714 424.228572-299.885714l109.714285 21.942857c-43.885714 256-292.571429 431.542857-548.571428 387.657143S0 687.542857 43.885714 431.542857 336.457143 0 592.457143 43.885714c87.771429 14.628571 168.228571 51.2 226.742857 109.714286z" fill="#d7dae0" p-id="3292"></path></svg>