<?xml version="1.0" standalone="no"?><!DOCTYPE svg PUBLIC "-//W3C//DTD SVG 1.1//EN" "http://www.w3.org/Graphics/SVG/1.1/DTD/svg11.dtd"><svg t="1603698358782" class="icon" viewBox="0 0 1043 1024" version="1.1" xmlns="http://www.w3.org/2000/svg" p-id="2835" xmlns:xlink="http://www.w3.org/1999/xlink" width="203.7109375" height="200"><defs><style type="text/css"></style></defs><path d="M666.706054 11.197932a10.396262 10.396262 0 0 1 11.452431-11.108858c32.066806 0 64.146337-0.089074 96.213143 0 5.929814-0.419922 10.930709 5.089969 10.434436 10.956159 0.114524 24.991749 0 50.008947 0.063625 75.077046h245.32379a10.332637 10.332637 0 0 1 11.096133 11.388806v94.482553c0.089074 3.423004-0.559897 7.164132-3.30848 9.480067-3.817477 3.626603-9.543692 2.544985-14.328264 2.697684q-119.423402-0.101799-238.834079 0v252.996918h242.053485c6.362461-0.725321 11.770554 5.217218 11.019783 11.452431v433.589024a118.10001 118.10001 0 0 1-90.8305 115.046029c-16.262452 4.097425-33.0848 3.117606-49.716274 3.23213h-319.904563c-3.372105 0-7.024157-0.636246-9.314644-3.321205-3.982901-4.313749-2.379561-10.587136-2.684958-15.867979V475.161348c0.241774-4.860921-1.056169-10.561686 2.544984-14.519137 2.277761-2.875833 6.057063-3.613878 9.543692-3.448454h89.17626V11.236107m16.835074 891.100905h236.301819v-327.03052c-78.729098-0.089074-157.458197 0.07635-236.187295-0.1018-0.279948 109.065315 0 218.117904-0.114524 327.183219zM25.064539 47.311264c21.632369-27.994831 56.422308-45.453425 91.886669-45.478875q180.78298-0.152699 361.565961 0a10.103589 10.103589 0 0 1 10.72711 8.042151 125.976737 125.976737 0 0 1 0.305398 14.11194v724.633462a10.638036 10.638036 0 0 1-11.159757 12.075952q-47.998409 0.07635-96.009544 0a10.256288 10.256288 0 0 1-10.956159-10.383537q-0.152699-315.234516 0-630.481758H118.376399v617.527787c-0.063625 5.089969 0.305398 10.179938-0.292673 15.168108s-5.688041 8.423899-10.587136 8.1694q-48.100209 0.101799-96.213142 0c-5.81529 0.483547-11.452431-4.453723-11.019783-10.396262Q0.060066 435.879511 0.161865 121.573914a117.934586 117.934586 0 0 1 24.902674-74.26265z m0 0" fill="#d7dae0" p-id="2836"></path><path d="M185.780316 198.305199a10.269013 10.269013 0 0 1 11.032509-10.994333h96.098618a10.179938 10.179938 0 0 1 10.70166 7.902177c0.623521 4.771846 0.267223 9.594592 0.318123 14.391888v454.139775c0.139974 23.566557-0.967094 47.311264 3.117606 70.623323 7.482255 48.265633 31.494184 94.520728 69.668953 125.531365 30.132618 24.83905 67.912914 39.447261 106.52033 43.900984 5.089969-0.369023 6.527885 5.433542 6.362462 9.454618v94.418928c0.241774 4.250124-0.77622 8.907446-4.351924 11.592405-4.504623 4.250124-11.032508 2.048713-16.4406 1.60334a310.182722 310.182722 0 0 1-156.834676-65.915101 348.968287 348.968287 0 0 1-66.89492-71.615866 11.974153 11.974153 0 0 0-2.990357 3.346654c-34.599066 48.736455-82.139378 88.654538-137.314643 112.055672a308.426683 308.426683 0 0 1-91.873944 23.273884c-6.553335 1.272492-12.724923-4.479173-12.648573-10.943434C0.060066 978.482951 0.20004 945.894423 0.060066 913.305895c-0.394473-3.613878 1.208868-6.807834 3.295755-9.594592a210.342976 210.342976 0 0 0 129.959638-69.847102 210.330252 210.330252 0 0 0 52.363058-136.462074q0.063625-249.573914 0-499.109653z m0 0" fill="#d7dae0" p-id="2837"></path></svg>